<?xml version="1.0" encoding="UTF-8" standalone="no"?>
<svg width="500px" height="500px" viewBox="0 0 500 500" version="1.1" xmlns="http://www.w3.org/2000/svg" xmlns:xlink="http://www.w3.org/1999/xlink" xmlns:sketch="http://www.bohemiancoding.com/sketch/ns">
    <!-- Generator: Sketch 3.4 (15575) - http://www.bohemiancoding.com/sketch -->
    <title>lauch_android-500</title>
    <desc>Created with Sketch.</desc>
    <defs>
        <path id="path-1" d="M57.6548024,0 C26.1884271,0 0.679748503,25.56054 0.679748503,57.089848 L0.679748503,57.089848 L0.679748503,364.910996 C0.679748503,396.440304 26.1884271,422 57.6548024,422 L57.6548024,422 L364.861537,422 C396.328754,422 421.837433,396.440304 421.837433,364.910996 L421.837433,364.910996 L421.837433,57.089848 C421.837433,25.56054 396.328754,0 364.861537,0 L364.861537,0"></path>
        <path id="path-3" d="M57.6548024,0 C26.1884271,0 0.679748503,25.56054 0.679748503,57.089848 L0.679748503,57.089848 L0.679748503,364.910996 C0.679748503,396.440304 26.1884271,422 57.6548024,422 L57.6548024,422 L364.861537,422 C396.328754,422 421.837433,396.440304 421.837433,364.910996 L421.837433,364.910996 L421.837433,57.089848 C421.837433,25.56054 396.328754,0 364.861537,0 L364.861537,0"></path>
        <path id="path-5" d="M57.6548024,0 C26.1884271,0 0.679748503,25.56054 0.679748503,57.089848 L0.679748503,57.089848 L0.679748503,364.910996 C0.679748503,396.440304 26.1884271,422 57.6548024,422 L57.6548024,422 L364.861537,422 C396.328754,422 421.837433,396.440304 421.837433,364.910996 L421.837433,364.910996 L421.837433,57.089848 C421.837433,25.56054 396.328754,0 364.861537,0 L364.861537,0"></path>
    </defs>
    <g id="Brand" stroke="none" stroke-width="1" fill="none" fill-rule="evenodd" sketch:type="MSPage">
        <g id="lauch_android-500" sketch:type="MSArtboardGroup">
            <g id="Page-1-Copy-2" sketch:type="MSLayerGroup" transform="translate(39.000000, 39.000000)">
                <g id="Page-1-Copy">
                    <path d="M364.861874,422 L57.6551393,422 C26.1887641,422 0.680085429,396.440304 0.680085429,364.910152 L0.680085429,57.089848 C0.680085429,25.559696 26.1887641,0 57.6551393,0 L364.861874,0 C396.328249,0 421.83777,25.559696 421.83777,57.089848 L421.83777,364.910152 C421.83777,396.440304 396.328249,422 364.861874,422" id="Fill-1" fill="#81D4FA" sketch:type="MSShapeGroup"></path>
                    <g id="Group-12">
                        <g id="Group-5">
                            <mask id="mask-2" sketch:name="Clip 4" fill="white">
                                <use xlink:href="#path-1"></use>
                            </mask>
                            <g id="Clip-4"></g>
                            <path d="M450.306176,157.207998 C450.306176,289.03067 343.656416,395.89373 212.096863,395.89373 C80.5381525,395.89373 -26.111608,289.03067 -26.111608,157.207998 C-26.111608,25.3853256 80.5381525,-81.4777344 212.096863,-81.4777344 C343.656416,-81.4777344 450.306176,25.3853256 450.306176,157.207998" id="Fill-3" fill="#2AB0EE" sketch:type="MSShapeGroup" mask="url(#mask-2)"></path>
                        </g>
                        <g id="Group-8">
                            <mask id="mask-4" sketch:name="Clip 7" fill="white">
                                <use xlink:href="#path-3"></use>
                            </mask>
                            <g id="Clip-7"></g>
                            <path d="M385.592771,157.207998 C385.592771,253.218906 307.916133,331.050898 212.096863,331.050898 C116.278436,331.050898 38.6017972,253.218906 38.6017972,157.207998 C38.6017972,61.1970896 116.278436,-16.6349024 212.096863,-16.6349024 C307.916133,-16.6349024 385.592771,61.1970896 385.592771,157.207998" id="Fill-6" fill="#40C4FF" sketch:type="MSShapeGroup" mask="url(#mask-4)"></path>
                        </g>
                        <g id="Group-11">
                            <mask id="mask-6" sketch:name="Clip 10" fill="white">
                                <use xlink:href="#path-5"></use>
                            </mask>
                            <g id="Clip-10"></g>
                            <path d="M322.149746,157.207998 C322.149746,218.110194 272.877666,267.480818 212.097032,267.480818 C151.317239,267.480818 102.044317,218.110194 102.044317,157.207998 C102.044317,96.3058016 151.317239,46.9351776 212.097032,46.9351776 C272.877666,46.9351776 322.149746,96.3058016 322.149746,157.207998" id="Fill-9" fill="#E1F5FE" sketch:type="MSShapeGroup" mask="url(#mask-6)"></path>
                        </g>
                    </g>
                </g>
            </g>
        </g>
    </g>
</svg>